<svg width="24" height="24" viewBox="0 0 24 24" fill="current" xmlns="http://www.w3.org/2000/svg">
<path fill-rule="evenodd" clip-rule="evenodd" d="M11.2 6.4V5.25C9.67551 5.42889 8.25681 6.1198 7.17597 7.20972C6.09514 8.29963 5.41614 9.72405 5.25001 11.25H6.4C6.45393 11.2494 6.50742 11.2598 6.55726 11.2804C6.6071 11.301 6.65226 11.3315 6.69001 11.37C6.72597 11.4071 6.7542 11.4509 6.77308 11.499C6.79196 11.547 6.80111 11.5984 6.8 11.65V12.46C6.80111 12.5116 6.79196 12.563 6.77308 12.611C6.7542 12.6591 6.72597 12.7029 6.69001 12.74C6.65226 12.7785 6.6071 12.809 6.55726 12.8296C6.50742 12.8503 6.45393 12.8606 6.4 12.86H5.25001C5.41614 14.386 6.09514 15.8104 7.17597 16.9003C8.25681 17.9902 9.67551 18.6811 11.2 18.86V17.68C11.2002 17.6277 11.2109 17.5759 11.2315 17.5278C11.2522 17.4797 11.2823 17.4362 11.32 17.4C11.3939 17.3246 11.4945 17.2815 11.6 17.28H12.4C12.4529 17.2704 12.5071 17.2704 12.56 17.28C12.608 17.2983 12.6521 17.3254 12.69 17.36C12.732 17.3998 12.766 17.4473 12.79 17.5C12.7995 17.5496 12.7995 17.6004 12.79 17.65V18.81C14.3132 18.6276 15.7299 17.9356 16.8101 16.8464C17.8903 15.7571 18.5704 14.3346 18.74 12.81H17.59C17.4847 12.8075 17.3844 12.7645 17.31 12.69C17.2355 12.6156 17.1925 12.5153 17.19 12.41V11.61C17.1896 11.5576 17.2001 11.5056 17.2207 11.4575C17.2414 11.4093 17.2718 11.3659 17.31 11.33C17.3451 11.2907 17.3883 11.2597 17.4367 11.2389C17.4851 11.2182 17.5374 11.2083 17.59 11.21H18.74C18.5591 9.69665 17.8736 8.2884 16.794 7.21249C15.7145 6.13659 14.304 5.45581 12.79 5.28V6.43C12.7906 6.48393 12.7803 6.53742 12.7597 6.58726C12.739 6.63709 12.7085 6.68225 12.67 6.72C12.594 6.79082 12.4939 6.83014 12.39 6.83H11.59C11.4847 6.82746 11.3844 6.7845 11.31 6.71003C11.2355 6.63556 11.1925 6.53529 11.19 6.43L11.2 6.4ZM12 8.8C12.6334 8.80215 13.2522 8.98989 13.78 9.34C14.3059 9.69353 14.7162 10.194 14.9598 10.779C15.2034 11.364 15.2696 12.0077 15.15 12.63C15.0247 13.2515 14.7187 13.8221 14.2704 14.2704C13.8221 14.7187 13.2515 15.0247 12.63 15.15C12.0077 15.2696 11.364 15.2034 10.779 14.9598C10.194 14.7162 9.69354 14.3059 9.34 13.78C8.98989 13.2522 8.80215 12.6334 8.8 12C8.80263 11.1521 9.14064 10.3397 9.74018 9.74017C10.3397 9.14063 11.1521 8.80264 12 8.8ZM12.8 3.63C14.7406 3.81908 16.5548 4.67817 17.9308 6.05962C19.3068 7.44108 20.1586 9.25864 20.34 11.2H21.58C21.6853 11.2025 21.7856 11.2455 21.8601 11.32C21.9345 11.3944 21.9775 11.4947 21.98 11.6V12.41C21.9775 12.5153 21.9345 12.6156 21.8601 12.69C21.7856 12.7645 21.6853 12.8075 21.58 12.81H20.34C20.1532 14.744 19.3016 16.5534 17.9305 17.9301C16.5593 19.3067 14.7533 20.1655 12.82 20.36V21.6C12.8217 21.6526 12.8118 21.7049 12.7911 21.7533C12.7704 21.8017 12.7393 21.8449 12.7 21.88C12.6642 21.9182 12.6207 21.9486 12.5725 21.9693C12.5244 21.9899 12.4724 22.0004 12.42 22H11.62C11.5147 21.9975 11.4144 21.9545 11.34 21.88C11.2655 21.8056 11.2225 21.7053 11.22 21.6V20.36C9.27736 20.1757 7.45971 19.32 6.07987 17.9401C4.70004 16.5603 3.84433 14.7427 3.66001 12.8H2.42002C2.36712 12.8096 2.31292 12.8096 2.26002 12.8C2.20966 12.7869 2.16437 12.7591 2.13001 12.72C2.09123 12.6835 2.06057 12.6392 2.04002 12.59C2.02637 12.5409 2.02637 12.4891 2.04002 12.44V11.64C2.04255 11.5347 2.08551 11.4344 2.15998 11.36C2.23445 11.2855 2.33472 11.2425 2.44001 11.24H3.68C3.86432 9.29734 4.72003 7.47969 6.09986 6.09986C7.47969 4.72003 9.29735 3.86432 11.24 3.68V2.4C11.2425 2.29471 11.2855 2.19444 11.36 2.11996C11.4344 2.04549 11.5347 2.00254 11.64 2H12.44C12.5453 2.00254 12.6456 2.04549 12.72 2.11996C12.7945 2.19444 12.8375 2.29471 12.84 2.4L12.8 3.63Z" fill="current"/>
</svg>
