<svg width="24" height="24" viewBox="0 0 24 24" fill="current" xmlns="http://www.w3.org/2000/svg">
<g clip-path="url(#clip0_345_139)">
<path d="M15 16.25C14.8011 16.25 14.6103 16.329 14.4697 16.4697C14.329 16.6103 14.25 16.8011 14.25 17V19.25H3.75V4.75H14.25V7C14.25 7.19891 14.329 7.38968 14.4697 7.53033C14.6103 7.67098 14.8011 7.75 15 7.75C15.1989 7.75 15.3897 7.67098 15.5303 7.53033C15.671 7.38968 15.75 7.19891 15.75 7V4C15.75 3.80109 15.671 3.61032 15.5303 3.46967C15.3897 3.32902 15.1989 3.25 15 3.25H3C2.80109 3.25 2.61032 3.32902 2.46967 3.46967C2.32901 3.61032 2.25 3.80109 2.25 4V20C2.25 20.1989 2.32901 20.3897 2.46967 20.5303C2.61032 20.671 2.80109 20.75 3 20.75H15C15.1989 20.75 15.3897 20.671 15.5303 20.5303C15.671 20.3897 15.75 20.1989 15.75 20V17C15.75 16.8011 15.671 16.6103 15.5303 16.4697C15.3897 16.329 15.1989 16.25 15 16.25Z" fill="current"/>
<path d="M20.7433 12.0267C20.7467 12.0023 20.7467 11.9777 20.7433 11.9533C20.7398 11.8897 20.7275 11.8269 20.7067 11.7667C20.7013 11.7411 20.6923 11.7164 20.68 11.6933C20.6467 11.6098 20.5968 11.5338 20.5333 11.47L18.5333 9.47C18.3911 9.33752 18.2031 9.2654 18.0088 9.26882C17.8145 9.27225 17.6291 9.35096 17.4917 9.48838C17.3543 9.62579 17.2756 9.81118 17.2722 10.0055C17.2687 10.1998 17.3408 10.3878 17.4733 10.53L18.1933 11.25H7C6.80109 11.25 6.61032 11.329 6.46967 11.4697C6.32901 11.6103 6.25 11.8011 6.25 12C6.25 12.1989 6.32901 12.3897 6.46967 12.5303C6.61032 12.671 6.80109 12.75 7 12.75H18.19L17.47 13.47C17.3963 13.5387 17.3372 13.6215 17.2962 13.7135C17.2552 13.8055 17.2332 13.9048 17.2314 14.0055C17.2296 14.1062 17.2481 14.2062 17.2859 14.2996C17.3236 14.393 17.3797 14.4778 17.451 14.549C17.5222 14.6203 17.607 14.6764 17.7004 14.7141C17.7938 14.7518 17.8938 14.7704 17.9945 14.7686C18.0952 14.7668 18.1945 14.7448 18.2865 14.7038C18.3785 14.6628 18.4613 14.6037 18.53 14.53L20.53 12.53C20.5311 12.5223 20.5311 12.5144 20.53 12.5067C20.5943 12.4442 20.6453 12.3693 20.68 12.2867C20.7158 12.2043 20.7372 12.1163 20.7433 12.0267Z" fill="current"/>
</g>
<defs>
<clipPath id="clip0_345_139">
<rect width="24" height="24" fill="current"/>
</clipPath>
</defs>
</svg>
