<svg id="Ebene_1" xmlns="http://www.w3.org/2000/svg" viewBox="0 0 814.6 139.75">
    <defs><style>.cls-1{fill:#f4981c;}.cls-2{fill:#222F3F;}</style></defs>
    <path class="cls-1" d="M585.28,26.12q9.63,0,14.21,4.68t4.58,12.47a22,22,0,0,1-.63,5.26,15.61,15.61,0,0,1-1.93,4.62,12.36,12.36,0,0,1-3.32,3.52,12.59,12.59,0,0,1-4.91,2v.19a13,13,0,0,1,5.78,1.79,13.24,13.24,0,0,1,4,3.71,15.76,15.76,0,0,1,2.26,4.86,20.34,20.34,0,0,1,.72,5.35,27.76,27.76,0,0,1-1.15,8.19,16.91,16.91,0,0,1-3.61,6.46,16.45,16.45,0,0,1-6.41,4.19,27.23,27.23,0,0,1-9.54,1.49H558.2V26.12Zm-4.82,27A4.84,4.84,0,0,0,584.7,51a8.3,8.3,0,0,0,1.45-4.86,8.75,8.75,0,0,0-1.45-5A4.8,4.8,0,0,0,580.46,39h-4.34V53.1ZM581.14,82a5.91,5.91,0,0,0,4.43-2.07q1.92-2.07,1.92-6.41a8.91,8.91,0,0,0-1.92-6.17,5.86,5.86,0,0,0-4.43-2.12h-5V82Z"/>
    <path class="cls-1" d="M655.62,26.12V40.77H632.78V52.52h21.39V66.59H632.78V80.27h23.7V94.92H614.86V26.12Z"/>
    <path class="cls-1" d="M698.78,26.12l16.77,68.8H696.47l-1.83-12H680.38l-1.83,12H659.76l16.48-68.8ZM687.41,40.19l-4.91,29.2h10l-4.91-29.2Z"/>
    <path class="cls-1" d="M747.25,44.33A10.41,10.41,0,0,0,746,39.08a4.16,4.16,0,0,0-3.86-2.16,4.86,4.86,0,0,0-4.24,1.87,7,7,0,0,0-1.35,4.2,6.88,6.88,0,0,0,2.17,5.34,19.93,19.93,0,0,0,5.44,3.42c2.19,1,4.53,2,7,2.94a31.81,31.81,0,0,1,7,3.9,19.35,19.35,0,0,1,5.45,6.32,20.89,20.89,0,0,1,2.16,10.16q0,11-6.26,16t-18.11,5a47.65,47.65,0,0,1-9.88-.92,17.71,17.71,0,0,1-7.23-3.17A14.37,14.37,0,0,1,719.88,86a23.54,23.54,0,0,1-1.54-9.06V74.49h17.35v1.64q0,4.44,1.63,6.22a5.51,5.51,0,0,0,4.24,1.78,5.09,5.09,0,0,0,4.29-1.93,7.44,7.44,0,0,0,1.49-4.72,7.05,7.05,0,0,0-2.07-5.35,18.25,18.25,0,0,0-5.2-3.37q-3.14-1.4-6.79-2.84a30,30,0,0,1-6.8-3.76,18.62,18.62,0,0,1-5.2-6.07,20.32,20.32,0,0,1-2.07-9.83q0-10.5,5.59-16t17-5.5q11.75,0,17,5.06T764,46H747.25Z"/>
    <path class="cls-1" d="M809.16,11.52c-2.83,11-18.26,13.91-28.28,14.6h-11V41.35h13.3V94.92h17.92V41.35H814.6V37.6A65,65,0,0,0,809.36,12Z"/>
    <path class="cls-2" d="M53,25.93H33.88L20.55,52.41h-.2V24.65s-10.17.73-12.73-13.47c0,0-12.78,13.4-5.24,83.74h18V76.66l3.77-5.8L34.65,94.92H55.14L35.62,56.08Z"/>
    <polygon class="cls-2" points="76.68 66.51 98.13 66.51 98.13 52.41 76.68 52.41 76.68 40.62 99.58 40.62 99.58 25.93 58.71 25.93 58.71 94.92 100.45 94.92 100.45 80.23 76.68 80.23 76.68 66.51"/>
    <polygon class="cls-2" points="129.92 49.99 129.73 49.99 122.97 25.93 103.54 25.93 120.84 67.77 120.84 94.92 138.81 94.92 138.81 67.77 156.4 25.93 136.69 25.93 129.92 49.99"/>
    <polygon class="cls-2" points="209.83 73.66 209.64 73.66 202.58 25.93 186.35 25.93 179.88 73.66 179.68 73.66 174.27 25.93 156.88 25.93 168.67 94.92 188.38 94.92 194.37 48.54 194.56 48.54 200.55 94.92 220.27 94.92 232.05 25.93 214.66 25.93 209.83 73.66"/>
    <path class="cls-2" d="M280.08,32.84a16.9,16.9,0,0,0-7.64-6.28,34.94,34.94,0,0,0-23.19,0,16.88,16.88,0,0,0-7.63,6.28A29.35,29.35,0,0,0,237.46,44a93.28,93.28,0,0,0-1.25,16.48,93.15,93.15,0,0,0,1.25,16.47A29.28,29.28,0,0,0,241.62,88a16,16,0,0,0,7.63,6.14,37.65,37.65,0,0,0,23.19,0A16.06,16.06,0,0,0,280.08,88a29.28,29.28,0,0,0,4.15-11.11,92.12,92.12,0,0,0,1.26-16.47A92.24,92.24,0,0,0,284.23,44,29.34,29.34,0,0,0,280.08,32.84ZM266.74,72a41.38,41.38,0,0,1-.82,7.3A7.17,7.17,0,0,1,264.09,83a5.48,5.48,0,0,1-6.48,0,7.09,7.09,0,0,1-1.83-3.77A40.31,40.31,0,0,1,255,72q-.19-4.59-.19-11.54T255,48.88a40.42,40.42,0,0,1,.83-7.3,7.06,7.06,0,0,1,1.83-3.76,5.44,5.44,0,0,1,6.48,0,7.13,7.13,0,0,1,1.83,3.76,41.5,41.5,0,0,1,.82,7.3q.19,4.59.19,11.55T266.74,72Z"/>
    <path class="cls-2" d="M342.11,92.94c-.26-.35-.52-.73-.77-1.11a6.09,6.09,0,0,1-.49-1.64c-.13-.71-.22-1.5-.29-2.37s-.09-1.79-.09-2.75v-8.7q0-7-2.42-10.92t-8.89-4.54v-.19q6.18-1,9-5.22T341,44.29a25.29,25.29,0,0,0-1-7.34,14.67,14.67,0,0,0-3.28-5.85,15.09,15.09,0,0,0-5.89-3.82A25.18,25.18,0,0,0,322,25.93H293.89v69h18V67.29h4.73a7.6,7.6,0,0,1,2.75.43,3.86,3.86,0,0,1,1.84,1.55,7.63,7.63,0,0,1,1,3,32.53,32.53,0,0,1,.29,4.83v4.64c0,.71,0,1.63.05,2.75s.1,2.31.2,3.53a32.92,32.92,0,0,0,.48,3.67,11.73,11.73,0,0,0,1,3.19h19.13V94A4,4,0,0,1,342.11,92.94Zm-21-40.1q-1.83,2.27-5.7,2.27h-3.57V38.88h3.47q4.07,0,5.85,1.83T323,46.9A9.16,9.16,0,0,1,321.14,52.84Z"/>
    <path class="cls-2" d="M398.73,47.43a32.37,32.37,0,0,0-2.66-11,17.69,17.69,0,0,0-6.52-7.64q-4.35-2.85-12.17-2.85H351.29v69h26.09q7.81,0,12.17-2.85a17.67,17.67,0,0,0,6.52-7.63,32.49,32.49,0,0,0,2.66-11q.48-6.23.48-13T398.73,47.43Zm-18.31,24.2a25,25,0,0,1-1.06,6.57,5,5,0,0,1-2.37,3,10,10,0,0,1-4.16.72h-3.57V38.88h3.57a10,10,0,0,1,4.16.72,5,5,0,0,1,2.37,3,25,25,0,0,1,1.06,6.57q.24,4.24.24,11.21C380.66,65.06,380.58,68.8,380.42,71.63Z"/>
    <path class="cls-2" d="M457.18,130.92l-10.61-10.6,13.81-13.81L464.8,108A47.75,47.75,0,1,0,436.25,81.4l2,4.65L424.94,99.33l-10.6-10.61,6.29-6.29a62.72,62.72,0,1,1,43.88,41.16Z"/>
    <path class="cls-1" d="M448.27,106.91l-30.64,30.65A7.5,7.5,0,0,1,407,127l30.64-30.64"/>
    <path class="cls-1" d="M495.63,47.19H464.05a7.5,7.5,0,0,1,0-15h31.58a7.5,7.5,0,0,1,0,15Z"/>
    <path class="cls-2" d="M505.65,70H453.83a7.5,7.5,0,1,1,0-15h51.82a7.5,7.5,0,0,1,0,15Z"/>
    <path class="cls-1" d="M495.63,92.51H464.05a7.5,7.5,0,0,1,0-15h31.58a7.5,7.5,0,0,1,0,15Z"/>
</svg>