<svg width="49" height="49" viewBox="0 0 49 49" fill="none" xmlns="http://www.w3.org/2000/svg">
<path d="M18.6195 45.9052L14.8974 42.1867L19.7384 37.3457L21.2895 37.8771C24.9165 39.1173 28.8592 39.0755 32.4592 37.7587C36.0591 36.442 39.0983 33.9299 41.0691 30.6422C43.04 27.3544 43.8231 23.49 43.2878 19.6944C42.7525 15.8987 40.9311 12.4017 38.1279 9.78721C35.3246 7.17277 31.7092 5.59926 27.8855 5.32948C24.0618 5.0597 20.2613 6.10997 17.1187 8.3049C13.9762 10.4998 11.6818 13.7065 10.6188 17.3894C9.55586 21.0723 9.78865 25.0084 11.2783 28.5403L11.9689 30.1672L7.31399 34.8257L3.59552 31.1072L5.80094 28.9018C4.27401 24.2571 4.3373 19.2361 5.98083 14.6313C7.62435 10.0265 10.7545 6.10018 14.8773 3.47191C19.0001 0.843648 23.8807 -0.336853 28.7489 0.116717C33.6171 0.570287 38.1957 2.6321 41.762 5.97676C45.3283 9.32141 47.6792 13.7584 48.4438 18.5876C49.2083 23.4167 48.343 28.363 45.9843 32.6457C43.6256 36.9284 39.9079 40.3037 35.4179 42.2389C30.9279 44.1741 25.9213 44.559 21.1882 43.3328L18.6195 45.9052Z" fill="current" stroke="current"/>
<path d="M15.494 37.4867L4.75071 48.2299C4.25342 48.7023 3.59129 48.9617 2.90548 48.9529C2.21968 48.944 1.56444 48.6677 1.07946 48.1827C0.594479 47.6977 0.318121 47.0425 0.3093 46.3567C0.300479 45.6709 0.559892 45.0087 1.03224 44.5115L11.7755 33.7682" fill="#F4981C"/>
<path d="M32.0979 16.546H21.0274C20.6763 16.5553 20.327 16.4941 19.9999 16.3661C19.6728 16.2381 19.3747 16.0459 19.1232 15.8008C18.8716 15.5557 18.6716 15.2628 18.5351 14.9392C18.3986 14.6156 18.3282 14.2679 18.3282 13.9167C18.3282 13.5655 18.3986 13.2179 18.5351 12.8943C18.6716 12.5707 18.8716 12.2777 19.1232 12.0327C19.3747 11.7876 19.6728 11.5954 19.9999 11.4674C20.327 11.3394 20.6763 11.2782 21.0274 11.2874H32.0979C32.449 11.2782 32.7984 11.3394 33.1254 11.4674C33.4525 11.5954 33.7506 11.7876 34.0022 12.0327C34.2537 12.2777 34.4537 12.5707 34.5902 12.8943C34.7267 13.2179 34.7971 13.5655 34.7971 13.9167C34.7971 14.2679 34.7267 14.6156 34.5902 14.9392C34.4537 15.2628 34.2537 15.5557 34.0022 15.8008C33.7506 16.0459 33.4525 16.2381 33.1254 16.3661C32.7984 16.4941 32.449 16.5553 32.0979 16.546V16.546Z" fill="#F4981C"/>
<path d="M35.612 24.5561H17.4426C17.0916 24.5653 16.7422 24.5041 16.4151 24.3761C16.0881 24.2481 15.79 24.0559 15.5384 23.8108C15.2868 23.5657 15.0869 23.2728 14.9503 22.9492C14.8138 22.6256 14.7435 22.278 14.7435 21.9267C14.7435 21.5755 14.8138 21.2279 14.9503 20.9043C15.0869 20.5807 15.2868 20.2877 15.5384 20.0427C15.79 19.7976 16.0881 19.6054 16.4151 19.4774C16.7422 19.3494 17.0916 19.2882 17.4426 19.2974H35.612C35.9631 19.2882 36.3125 19.3494 36.6395 19.4774C36.9666 19.6054 37.2647 19.7976 37.5163 20.0427C37.7679 20.2877 37.9678 20.5807 38.1043 20.9043C38.2409 21.2279 38.3112 21.5755 38.3112 21.9267C38.3112 22.278 38.2409 22.6256 38.1043 22.9492C37.9678 23.2728 37.7679 23.5657 37.5163 23.8108C37.2647 24.0559 36.9666 24.2481 36.6395 24.3761C36.3125 24.5041 35.9631 24.5653 35.612 24.5561V24.5561Z" fill="current" stroke="current"/>
<path d="M32.0978 32.4377H21.0273C20.3297 32.4377 19.6607 32.1606 19.1675 31.6673C18.6742 31.1741 18.3971 30.505 18.3971 29.8075C18.3971 29.1099 18.6742 28.4409 19.1675 27.9476C19.6607 27.4544 20.3297 27.1772 21.0273 27.1772H32.0978C32.7954 27.1772 33.4644 27.4544 33.9576 27.9476C34.4509 28.4409 34.728 29.1099 34.728 29.8075C34.728 30.505 34.4509 31.1741 33.9576 31.6673C33.4644 32.1606 32.7954 32.4377 32.0978 32.4377V32.4377Z" fill="#F4981C"/>
</svg>
